<?xml version="1.0" encoding="utf-8"?>
<!-- Generator: Adobe Illustrator 26.5.0, SVG Export Plug-In . SVG Version: 6.00 Build 0)  -->
<svg version="1.1" id="Ebene_1" xmlns="http://www.w3.org/2000/svg" xmlns:xlink="http://www.w3.org/1999/xlink" x="0px" y="0px"
	 viewBox="0 0 1190.6 302.9" style="enable-background:new 0 0 1190.6 302.9;" xml:space="preserve">
<g>
	<path d="M273.3,205.5H125.9c-5.7,0-10.3-4.6-10.3-10.3V48.1c0-4.8-3.9-8.7-8.7-8.7H70.5c-5.7,0-10.3,4.6-10.3,10.3v201.1
		c0,5.7,4.6,10.3,10.3,10.3h201.3c5.7,0,10.3-4.6,10.3-10.3v-36.5c0-2.3-0.9-4.5-2.6-6.2C277.9,206.4,275.6,205.5,273.3,205.5z"/>
	<path d="M531.9,205.7H331.6c-5.7,0-10.3,4.6-10.3,10.3v34.9c0,5.7,4.6,10.3,10.3,10.3h200.3c5.7,0,10.3-4.6,10.3-10.3V216
		C542.2,210.3,537.6,205.7,531.9,205.7z"/>
	<path d="M531.9,39.3H331.6c-5.7,0-10.3,4.6-10.3,10.3v34.9c0,5.7,4.6,10.3,10.3,10.3h200.3c5.7,0,10.3-4.6,10.3-10.3V49.6
		C542.2,43.9,537.6,39.3,531.9,39.3z"/>
	<path d="M531.9,122.5H331.6c-5.7,0-10.3,4.6-10.3,10.3v34.9c0,5.7,4.6,10.3,10.3,10.3h200.3c5.7,0,10.3-4.6,10.3-10.3v-34.9
		C542.2,127.1,537.6,122.5,531.9,122.5z"/>
	<path d="M914.8,39.3H792.6h-81.2H590.8c-5.7,0-10.3,4.6-10.3,10.3v36.5c0,4.8,3.9,8.7,8.7,8.7h63.7c5.7,0,10.3,4.6,10.3,10.3v145.9
		c0,5.7,4.6,10.3,10.3,10.3h34.9c5.7,0,10.3-4.6,10.3-10.3V103.5c0-4.8,3.9-8.7,8.7-8.7h49.3c4.8,0,8.7,3.9,8.7,8.7v147.4
		c0,5.7,4.6,10.3,10.3,10.3h34.9c5.7,0,10.3-4.6,10.3-10.3V103.5c0-4.8,3.9-8.7,8.7-8.7h65.2c4.8,0,8.7-3.9,8.7-8.7v-38
		C923.5,43.2,919.6,39.3,914.8,39.3z"/>
	<path d="M1109.3,150.3c-3.4,0-6.2,2.6-6.6,6c-2.1,21.4-16.7,39.9-37.5,46.7c-20,6.7-42.1,1.5-57-13.4c-14.9-14.9-20.1-37-13.3-57
		c6.7-20,24.2-34.4,45.1-37.3c4.3-0.6,7.5-4.3,7.5-8.6V48.4c0-2.5-1.1-4.8-2.9-6.5c-1.8-1.7-4.3-2.5-6.7-2.2
		c-68,5.9-116.6,72.1-96.9,141.9c11.2,39.8,44.2,69.9,84.9,77.5c68.3,12.8,127.8-36.7,132.3-101c0,0,0-0.1,0-0.1
		c0.3-4.2-3.1-7.8-7.4-7.8L1109.3,150.3z"/>
</g>
</svg>
